<svg xmlns="http://www.w3.org/2000/svg" xmlns:xlink="http://www.w3.org/1999/xlink" width="500" zoomAndPan="magnify" viewBox="0 0 375 374.999991" height="500" preserveAspectRatio="xMidYMid meet" version="1.0"><defs><clipPath id="112f006ece"><path d="M 46.394531 45.191406 L 330.644531 45.191406 L 330.644531 329.441406 L 46.394531 329.441406 Z M 46.394531 45.191406 " clip-rule="nonzero"/></clipPath></defs><g clip-path="url(#112f006ece)"><path fill="#cc4e00" d="M 330.398438 116.191406 L 330.398438 136.480469 C 330.398438 137.144531 330.332031 137.804688 330.203125 138.457031 C 330.074219 139.113281 329.882812 139.746094 329.625 140.359375 C 329.371094 140.976562 329.058594 141.5625 328.691406 142.113281 C 328.320312 142.667969 327.898438 143.179688 327.429688 143.652344 C 326.957031 144.125 326.445312 144.542969 325.890625 144.914062 C 325.335938 145.285156 324.753906 145.597656 324.136719 145.851562 C 323.523438 146.105469 322.886719 146.296875 322.234375 146.429688 C 321.582031 146.558594 320.921875 146.621094 320.253906 146.621094 L 56.539062 146.621094 C 55.871094 146.621094 55.210938 146.558594 54.558594 146.429688 C 53.90625 146.296875 53.269531 146.105469 52.65625 145.851562 C 52.039062 145.597656 51.457031 145.285156 50.902344 144.914062 C 50.347656 144.542969 49.835938 144.125 49.363281 143.652344 C 48.894531 143.179688 48.472656 142.667969 48.101562 142.113281 C 47.734375 141.5625 47.421875 140.976562 47.164062 140.359375 C 46.910156 139.746094 46.71875 139.113281 46.589844 138.457031 C 46.457031 137.804688 46.394531 137.144531 46.394531 136.480469 L 46.394531 116.191406 C 46.394531 115.222656 46.53125 114.273438 46.800781 113.34375 C 47.074219 112.414062 47.46875 111.542969 47.992188 110.726562 C 48.515625 109.910156 49.140625 109.183594 49.871094 108.546875 C 50.601562 107.910156 51.40625 107.386719 52.289062 106.980469 L 184.144531 46.125 C 185.496094 45.503906 186.910156 45.195312 188.394531 45.195312 C 189.878906 45.195312 191.296875 45.503906 192.644531 46.125 L 324.503906 106.980469 C 325.382812 107.386719 326.1875 107.910156 326.917969 108.546875 C 327.648438 109.183594 328.277344 109.910156 328.800781 110.726562 C 329.320312 111.542969 329.71875 112.414062 329.992188 113.34375 C 330.261719 114.273438 330.398438 115.222656 330.398438 116.191406 Z M 320.253906 288.625 L 56.539062 288.625 C 55.871094 288.625 55.210938 288.6875 54.558594 288.820312 C 53.90625 288.949219 53.269531 289.140625 52.65625 289.394531 C 52.039062 289.652344 51.457031 289.960938 50.902344 290.332031 C 50.347656 290.703125 49.835938 291.125 49.363281 291.59375 C 48.894531 292.066406 48.472656 292.578125 48.101562 293.132812 C 47.734375 293.683594 47.421875 294.269531 47.164062 294.886719 C 46.910156 295.5 46.71875 296.136719 46.589844 296.789062 C 46.457031 297.441406 46.394531 298.101562 46.394531 298.765625 L 46.394531 319.054688 C 46.394531 319.71875 46.457031 320.378906 46.589844 321.03125 C 46.71875 321.683594 46.910156 322.320312 47.164062 322.933594 C 47.421875 323.550781 47.734375 324.136719 48.101562 324.6875 C 48.472656 325.242188 48.894531 325.753906 49.363281 326.226562 C 49.835938 326.695312 50.347656 327.117188 50.902344 327.488281 C 51.457031 327.859375 52.039062 328.171875 52.65625 328.425781 C 53.269531 328.679688 53.90625 328.871094 54.558594 329 C 55.210938 329.132812 55.871094 329.195312 56.539062 329.195312 L 320.253906 329.195312 C 320.921875 329.195312 321.582031 329.132812 322.234375 329 C 322.886719 328.871094 323.523438 328.679688 324.136719 328.425781 C 324.753906 328.171875 325.335938 327.859375 325.890625 327.488281 C 326.445312 327.117188 326.957031 326.695312 327.429688 326.226562 C 327.898438 325.753906 328.320312 325.242188 328.691406 324.6875 C 329.058594 324.136719 329.371094 323.550781 329.625 322.933594 C 329.882812 322.320312 330.074219 321.683594 330.203125 321.03125 C 330.332031 320.378906 330.398438 319.71875 330.398438 319.054688 L 330.398438 298.765625 C 330.398438 298.101562 330.332031 297.441406 330.203125 296.789062 C 330.074219 296.136719 329.882812 295.5 329.625 294.886719 C 329.371094 294.269531 329.058594 293.683594 328.691406 293.132812 C 328.320312 292.578125 327.898438 292.066406 327.429688 291.59375 C 326.957031 291.125 326.445312 290.703125 325.890625 290.332031 C 325.335938 289.960938 324.753906 289.652344 324.136719 289.394531 C 323.523438 289.140625 322.886719 288.949219 322.234375 288.820312 C 321.582031 288.6875 320.921875 288.625 320.253906 288.625 Z M 168.109375 166.910156 L 168.109375 268.339844 L 208.683594 268.339844 L 208.683594 166.910156 Z M 76.824219 166.910156 L 76.824219 268.339844 L 117.394531 268.339844 L 117.394531 166.910156 Z M 259.398438 166.910156 L 259.398438 268.339844 L 299.96875 268.339844 L 299.96875 166.910156 Z M 259.398438 166.910156 " fill-opacity="1" fill-rule="nonzero"/></g></svg>