<svg xmlns="http://www.w3.org/2000/svg" xmlns:xlink="http://www.w3.org/1999/xlink" width="500" zoomAndPan="magnify" viewBox="0 0 375 374.999991" height="500" preserveAspectRatio="xMidYMid meet" version="1.0"><defs><clipPath id="cadf8c7088"><path d="M 18.75 56.929688 L 356.25 56.929688 L 356.25 317.929688 L 18.75 317.929688 Z M 18.75 56.929688 " clip-rule="nonzero"/></clipPath></defs><path fill="#cc4e00" d="M 187.5 95.011719 C 186.429688 95.011719 185.363281 95.066406 184.300781 95.167969 C 183.238281 95.273438 182.179688 95.429688 181.132812 95.640625 C 180.082031 95.847656 179.046875 96.109375 178.023438 96.417969 C 177 96.730469 175.996094 97.089844 175.007812 97.496094 C 174.019531 97.90625 173.054688 98.363281 172.113281 98.867188 C 171.167969 99.371094 170.253906 99.921875 169.363281 100.515625 C 168.476562 101.109375 167.617188 101.742188 166.792969 102.421875 C 165.964844 103.101562 165.175781 103.816406 164.417969 104.574219 C 163.664062 105.328125 162.945312 106.121094 162.265625 106.945312 C 161.589844 107.773438 160.953125 108.632812 160.359375 109.519531 C 159.765625 110.410156 159.214844 111.324219 158.710938 112.269531 C 158.207031 113.210938 157.75 114.175781 157.34375 115.164062 C 156.933594 116.152344 156.574219 117.15625 156.261719 118.179688 C 155.953125 119.203125 155.691406 120.238281 155.484375 121.285156 C 155.277344 122.335938 155.121094 123.390625 155.015625 124.457031 C 154.910156 125.519531 154.859375 126.585938 154.855469 127.65625 C 154.859375 128.722656 154.910156 129.789062 155.015625 130.855469 C 155.121094 131.917969 155.277344 132.976562 155.484375 134.023438 C 155.691406 135.070312 155.953125 136.109375 156.261719 137.132812 C 156.574219 138.152344 156.933594 139.160156 157.34375 140.148438 C 157.75 141.132812 158.207031 142.101562 158.710938 143.042969 C 159.214844 143.984375 159.765625 144.902344 160.359375 145.789062 C 160.953125 146.679688 161.589844 147.535156 162.265625 148.363281 C 162.945312 149.191406 163.664062 149.980469 164.417969 150.738281 C 165.175781 151.492188 165.964844 152.210938 166.792969 152.886719 C 167.617188 153.566406 168.476562 154.203125 169.363281 154.796875 C 170.253906 155.390625 171.167969 155.941406 172.113281 156.445312 C 173.054688 156.949219 174.019531 157.402344 175.007812 157.8125 C 175.996094 158.222656 177 158.582031 178.023438 158.890625 C 179.046875 159.203125 180.082031 159.460938 181.132812 159.671875 C 182.179688 159.878906 183.238281 160.035156 184.300781 160.140625 C 185.363281 160.246094 186.429688 160.296875 187.5 160.296875 C 188.570312 160.296875 189.636719 160.246094 190.699219 160.140625 C 191.761719 160.035156 192.820312 159.878906 193.867188 159.671875 C 194.917969 159.460938 195.953125 159.203125 196.976562 158.890625 C 198 158.582031 199.003906 158.222656 199.992188 157.8125 C 200.980469 157.402344 201.945312 156.949219 202.886719 156.445312 C 203.832031 155.941406 204.746094 155.390625 205.636719 154.796875 C 206.523438 154.203125 207.382812 153.566406 208.207031 152.886719 C 209.035156 152.210938 209.824219 151.492188 210.582031 150.738281 C 211.335938 149.980469 212.054688 149.191406 212.734375 148.363281 C 213.410156 147.535156 214.046875 146.679688 214.640625 145.789062 C 215.234375 144.902344 215.785156 143.984375 216.289062 143.042969 C 216.792969 142.101562 217.25 141.132812 217.65625 140.148438 C 218.066406 139.160156 218.425781 138.152344 218.738281 137.132812 C 219.046875 136.109375 219.308594 135.070312 219.515625 134.023438 C 219.722656 132.976562 219.878906 131.917969 219.984375 130.855469 C 220.089844 129.789062 220.140625 128.722656 220.140625 127.65625 C 220.140625 126.585938 220.085938 125.519531 219.980469 124.457031 C 219.875 123.394531 219.71875 122.335938 219.507812 121.289062 C 219.300781 120.242188 219.039062 119.207031 218.730469 118.183594 C 218.417969 117.160156 218.058594 116.15625 217.648438 115.167969 C 217.238281 114.183594 216.78125 113.21875 216.277344 112.273438 C 215.773438 111.332031 215.222656 110.417969 214.628906 109.527344 C 214.035156 108.640625 213.398438 107.78125 212.722656 106.957031 C 212.042969 106.132812 211.328125 105.339844 210.570312 104.585938 C 209.816406 103.828125 209.023438 103.113281 208.199219 102.433594 C 207.371094 101.753906 206.515625 101.121094 205.625 100.527344 C 204.738281 99.929688 203.824219 99.382812 202.878906 98.878906 C 201.9375 98.375 200.972656 97.917969 199.984375 97.507812 C 199 97.097656 197.992188 96.738281 196.972656 96.425781 C 195.949219 96.117188 194.914062 95.855469 193.867188 95.644531 C 192.816406 95.4375 191.761719 95.277344 190.699219 95.171875 C 189.636719 95.066406 188.570312 95.015625 187.5 95.011719 Z M 187.5 149.417969 C 186.789062 149.417969 186.078125 149.382812 185.367188 149.3125 C 184.65625 149.242188 183.953125 149.136719 183.253906 149 C 182.554688 148.859375 181.863281 148.6875 181.183594 148.480469 C 180.5 148.273438 179.832031 148.03125 179.171875 147.761719 C 178.511719 147.488281 177.871094 147.183594 177.242188 146.847656 C 176.613281 146.511719 176.003906 146.144531 175.410156 145.75 C 174.816406 145.351562 174.246094 144.929688 173.695312 144.476562 C 173.144531 144.023438 172.617188 143.546875 172.113281 143.042969 C 171.609375 142.539062 171.128906 142.011719 170.679688 141.460938 C 170.226562 140.910156 169.800781 140.339844 169.40625 139.746094 C 169.011719 139.152344 168.644531 138.542969 168.308594 137.914062 C 167.972656 137.285156 167.667969 136.640625 167.394531 135.984375 C 167.121094 135.324219 166.882812 134.65625 166.675781 133.972656 C 166.46875 133.289062 166.296875 132.601562 166.15625 131.902344 C 166.015625 131.203125 165.914062 130.496094 165.84375 129.789062 C 165.773438 129.078125 165.738281 128.367188 165.738281 127.65625 C 165.738281 126.941406 165.773438 126.230469 165.84375 125.523438 C 165.914062 124.8125 166.015625 124.109375 166.15625 123.410156 C 166.296875 122.710938 166.46875 122.019531 166.675781 121.339844 C 166.882812 120.65625 167.121094 119.984375 167.394531 119.328125 C 167.667969 118.667969 167.972656 118.027344 168.308594 117.398438 C 168.644531 116.769531 169.011719 116.15625 169.40625 115.566406 C 169.800781 114.972656 170.226562 114.402344 170.679688 113.851562 C 171.128906 113.300781 171.609375 112.769531 172.113281 112.265625 C 172.617188 111.761719 173.144531 111.285156 173.695312 110.832031 C 174.246094 110.382812 174.816406 109.957031 175.410156 109.5625 C 176.003906 109.164062 176.613281 108.800781 177.242188 108.464844 C 177.871094 108.128906 178.511719 107.824219 179.171875 107.550781 C 179.832031 107.277344 180.5 107.039062 181.183594 106.832031 C 181.863281 106.625 182.554688 106.449219 183.253906 106.3125 C 183.953125 106.171875 184.65625 106.066406 185.367188 106 C 186.078125 105.929688 186.789062 105.894531 187.5 105.894531 C 188.210938 105.894531 188.921875 105.929688 189.632812 106 C 190.34375 106.066406 191.046875 106.171875 191.746094 106.3125 C 192.445312 106.449219 193.136719 106.625 193.816406 106.832031 C 194.5 107.039062 195.167969 107.277344 195.828125 107.550781 C 196.484375 107.824219 197.128906 108.128906 197.757812 108.464844 C 198.386719 108.800781 198.996094 109.164062 199.589844 109.5625 C 200.183594 109.957031 200.753906 110.382812 201.304688 110.832031 C 201.855469 111.285156 202.382812 111.761719 202.886719 112.265625 C 203.390625 112.769531 203.871094 113.300781 204.320312 113.851562 C 204.773438 114.402344 205.199219 114.972656 205.59375 115.566406 C 205.988281 116.15625 206.355469 116.769531 206.691406 117.398438 C 207.027344 118.027344 207.332031 118.667969 207.605469 119.328125 C 207.878906 119.984375 208.117188 120.65625 208.324219 121.339844 C 208.53125 122.019531 208.703125 122.710938 208.84375 123.410156 C 208.984375 124.109375 209.085938 124.8125 209.15625 125.523438 C 209.226562 126.230469 209.261719 126.941406 209.261719 127.65625 C 209.261719 128.367188 209.226562 129.078125 209.15625 129.789062 C 209.085938 130.496094 208.980469 131.199219 208.839844 131.898438 C 208.699219 132.597656 208.527344 133.289062 208.320312 133.96875 C 208.113281 134.652344 207.871094 135.320312 207.597656 135.980469 C 207.324219 136.636719 207.019531 137.28125 206.683594 137.910156 C 206.347656 138.535156 205.984375 139.148438 205.585938 139.738281 C 205.191406 140.332031 204.765625 140.902344 204.316406 141.453125 C 203.863281 142.003906 203.382812 142.53125 202.878906 143.035156 C 202.375 143.539062 201.847656 144.019531 201.300781 144.46875 C 200.75 144.921875 200.175781 145.347656 199.585938 145.742188 C 198.992188 146.136719 198.382812 146.503906 197.753906 146.839844 C 197.125 147.175781 196.480469 147.480469 195.824219 147.753906 C 195.164062 148.027344 194.496094 148.265625 193.8125 148.472656 C 193.132812 148.683594 192.441406 148.855469 191.742188 148.996094 C 191.046875 149.132812 190.339844 149.238281 189.632812 149.308594 C 188.921875 149.378906 188.210938 149.417969 187.5 149.417969 Z M 187.5 149.417969 " fill-opacity="1" fill-rule="nonzero"/><g clip-path="url(#cadf8c7088)"><path fill="#cc4e00" d="M 350.710938 165.738281 L 307.1875 165.738281 L 307.1875 62.371094 C 307.1875 62.011719 307.15625 61.660156 307.085938 61.308594 C 307.015625 60.957031 306.910156 60.617188 306.773438 60.289062 C 306.636719 59.957031 306.472656 59.644531 306.273438 59.347656 C 306.074219 59.050781 305.847656 58.777344 305.597656 58.523438 C 305.34375 58.269531 305.070312 58.046875 304.773438 57.847656 C 304.472656 57.648438 304.160156 57.480469 303.832031 57.34375 C 303.5 57.207031 303.160156 57.105469 302.808594 57.035156 C 302.460938 56.964844 302.105469 56.929688 301.75 56.929688 L 73.25 56.929688 C 72.894531 56.929688 72.539062 56.964844 72.191406 57.035156 C 71.839844 57.105469 71.5 57.207031 71.167969 57.34375 C 70.839844 57.480469 70.527344 57.648438 70.226562 57.847656 C 69.929688 58.046875 69.65625 58.269531 69.402344 58.523438 C 69.152344 58.777344 68.925781 59.050781 68.726562 59.347656 C 68.527344 59.644531 68.363281 59.957031 68.226562 60.289062 C 68.089844 60.617188 67.984375 60.957031 67.914062 61.308594 C 67.84375 61.660156 67.808594 62.011719 67.808594 62.371094 L 67.808594 165.738281 L 24.289062 165.738281 C 23.929688 165.738281 23.574219 165.773438 23.226562 165.84375 C 22.875 165.914062 22.535156 166.015625 22.207031 166.152344 C 21.875 166.289062 21.5625 166.457031 21.265625 166.65625 C 20.96875 166.855469 20.691406 167.078125 20.441406 167.332031 C 20.1875 167.585938 19.960938 167.859375 19.761719 168.15625 C 19.566406 168.453125 19.398438 168.765625 19.261719 169.097656 C 19.125 169.425781 19.019531 169.765625 18.953125 170.117188 C 18.882812 170.46875 18.847656 170.820312 18.847656 171.179688 L 18.847656 312.628906 C 18.847656 312.988281 18.882812 313.339844 18.953125 313.691406 C 19.019531 314.042969 19.125 314.382812 19.261719 314.710938 C 19.398438 315.042969 19.566406 315.355469 19.761719 315.652344 C 19.960938 315.949219 20.1875 316.222656 20.441406 316.476562 C 20.691406 316.730469 20.96875 316.953125 21.265625 317.152344 C 21.5625 317.351562 21.875 317.519531 22.207031 317.65625 C 22.535156 317.792969 22.875 317.894531 23.226562 317.964844 C 23.574219 318.035156 23.929688 318.070312 24.289062 318.070312 L 350.710938 318.070312 C 351.070312 318.070312 351.425781 318.035156 351.773438 317.964844 C 352.125 317.894531 352.464844 317.792969 352.792969 317.65625 C 353.125 317.519531 353.4375 317.351562 353.734375 317.152344 C 354.03125 316.953125 354.308594 316.730469 354.558594 316.476562 C 354.8125 316.222656 355.039062 315.949219 355.238281 315.652344 C 355.433594 315.355469 355.601562 315.042969 355.738281 314.710938 C 355.875 314.382812 355.980469 314.042969 356.046875 313.691406 C 356.117188 313.339844 356.152344 312.988281 356.152344 312.628906 L 356.152344 171.179688 C 356.152344 170.820312 356.117188 170.46875 356.046875 170.117188 C 355.980469 169.765625 355.875 169.425781 355.738281 169.097656 C 355.601562 168.765625 355.433594 168.453125 355.238281 168.15625 C 355.039062 167.859375 354.8125 167.585938 354.558594 167.332031 C 354.308594 167.078125 354.03125 166.855469 353.734375 166.65625 C 353.4375 166.457031 353.125 166.289062 352.792969 166.152344 C 352.464844 166.015625 352.125 165.914062 351.773438 165.84375 C 351.425781 165.773438 351.070312 165.738281 350.710938 165.738281 Z M 78.691406 67.808594 L 296.308594 67.808594 L 296.308594 165.738281 L 266.582031 165.738281 C 267.542969 164.085938 268.695312 162.589844 270.046875 161.238281 C 271.398438 159.890625 272.902344 158.742188 274.554688 157.785156 C 276.207031 156.832031 277.957031 156.105469 279.800781 155.609375 C 281.644531 155.113281 283.519531 154.863281 285.425781 154.855469 C 285.785156 154.855469 286.140625 154.824219 286.488281 154.753906 C 286.839844 154.683594 287.179688 154.578125 287.507812 154.441406 C 287.839844 154.304688 288.152344 154.140625 288.449219 153.941406 C 288.746094 153.742188 289.023438 153.515625 289.273438 153.265625 C 289.527344 153.011719 289.753906 152.738281 289.953125 152.441406 C 290.148438 152.140625 290.316406 151.828125 290.453125 151.5 C 290.589844 151.167969 290.695312 150.828125 290.761719 150.476562 C 290.832031 150.128906 290.867188 149.773438 290.867188 149.417969 L 290.867188 105.894531 C 290.867188 105.535156 290.832031 105.183594 290.761719 104.832031 C 290.695312 104.480469 290.589844 104.140625 290.453125 103.8125 C 290.316406 103.480469 290.148438 103.167969 289.953125 102.871094 C 289.753906 102.574219 289.527344 102.300781 289.273438 102.046875 C 289.023438 101.792969 288.746094 101.570312 288.449219 101.371094 C 288.152344 101.171875 287.839844 101.003906 287.507812 100.867188 C 287.179688 100.730469 286.839844 100.628906 286.488281 100.558594 C 286.140625 100.488281 285.785156 100.453125 285.425781 100.453125 C 284.714844 100.453125 284.003906 100.417969 283.296875 100.347656 C 282.585938 100.277344 281.882812 100.171875 281.183594 100.03125 C 280.484375 99.890625 279.792969 99.71875 279.113281 99.511719 C 278.429688 99.304688 277.761719 99.0625 277.101562 98.792969 C 276.445312 98.519531 275.800781 98.214844 275.171875 97.878906 C 274.546875 97.542969 273.933594 97.175781 273.34375 96.78125 C 272.75 96.382812 272.179688 95.960938 271.628906 95.507812 C 271.078125 95.054688 270.550781 94.578125 270.046875 94.074219 C 269.542969 93.570312 269.0625 93.042969 268.613281 92.492188 C 268.160156 91.941406 267.734375 91.367188 267.339844 90.777344 C 266.945312 90.183594 266.578125 89.574219 266.242188 88.945312 C 265.90625 88.316406 265.601562 87.675781 265.328125 87.015625 C 265.054688 86.359375 264.816406 85.6875 264.609375 85.007812 C 264.402344 84.324219 264.226562 83.632812 264.085938 82.933594 C 263.949219 82.238281 263.84375 81.53125 263.773438 80.824219 C 263.703125 80.113281 263.667969 79.402344 263.664062 78.691406 C 263.664062 78.335938 263.632812 77.980469 263.5625 77.628906 C 263.492188 77.28125 263.386719 76.941406 263.25 76.609375 C 263.113281 76.28125 262.949219 75.964844 262.75 75.667969 C 262.550781 75.371094 262.324219 75.097656 262.074219 74.84375 C 261.820312 74.59375 261.546875 74.367188 261.25 74.167969 C 260.949219 73.96875 260.636719 73.800781 260.308594 73.664062 C 259.976562 73.527344 259.636719 73.425781 259.285156 73.355469 C 258.9375 73.285156 258.582031 73.25 258.226562 73.25 L 116.773438 73.25 C 116.417969 73.25 116.0625 73.285156 115.714844 73.355469 C 115.363281 73.425781 115.023438 73.527344 114.691406 73.664062 C 114.363281 73.800781 114.050781 73.96875 113.75 74.167969 C 113.453125 74.367188 113.179688 74.59375 112.925781 74.84375 C 112.675781 75.097656 112.449219 75.371094 112.25 75.667969 C 112.050781 75.964844 111.886719 76.28125 111.75 76.609375 C 111.613281 76.941406 111.507812 77.28125 111.4375 77.628906 C 111.367188 77.980469 111.332031 78.335938 111.332031 78.691406 C 111.332031 79.402344 111.296875 80.113281 111.226562 80.824219 C 111.15625 81.53125 111.050781 82.238281 110.914062 82.933594 C 110.773438 83.632812 110.597656 84.324219 110.390625 85.007812 C 110.183594 85.6875 109.945312 86.359375 109.671875 87.015625 C 109.398438 87.675781 109.09375 88.316406 108.757812 88.945312 C 108.421875 89.574219 108.054688 90.183594 107.660156 90.777344 C 107.265625 91.367188 106.839844 91.941406 106.386719 92.492188 C 105.9375 93.042969 105.457031 93.570312 104.953125 94.074219 C 104.449219 94.578125 103.921875 95.054688 103.371094 95.507812 C 102.820312 95.960938 102.25 96.382812 101.65625 96.78125 C 101.066406 97.175781 100.453125 97.542969 99.828125 97.878906 C 99.199219 98.214844 98.554688 98.519531 97.898438 98.792969 C 97.238281 99.0625 96.570312 99.304688 95.886719 99.511719 C 95.207031 99.71875 94.515625 99.890625 93.816406 100.03125 C 93.117188 100.171875 92.414062 100.277344 91.703125 100.347656 C 90.996094 100.417969 90.285156 100.453125 89.570312 100.453125 C 89.214844 100.453125 88.859375 100.488281 88.511719 100.558594 C 88.160156 100.628906 87.820312 100.730469 87.492188 100.867188 C 87.160156 101.003906 86.847656 101.171875 86.550781 101.371094 C 86.253906 101.570312 85.976562 101.792969 85.726562 102.046875 C 85.472656 102.300781 85.246094 102.574219 85.046875 102.871094 C 84.851562 103.167969 84.683594 103.480469 84.546875 103.8125 C 84.410156 104.140625 84.304688 104.480469 84.238281 104.832031 C 84.167969 105.183594 84.132812 105.535156 84.132812 105.894531 L 84.132812 149.417969 C 84.132812 149.773438 84.167969 150.128906 84.238281 150.476562 C 84.304688 150.828125 84.410156 151.167969 84.546875 151.5 C 84.683594 151.828125 84.851562 152.140625 85.046875 152.441406 C 85.246094 152.738281 85.472656 153.011719 85.726562 153.265625 C 85.976562 153.515625 86.253906 153.742188 86.550781 153.941406 C 86.847656 154.140625 87.160156 154.304688 87.492188 154.441406 C 87.820312 154.578125 88.160156 154.683594 88.511719 154.753906 C 88.859375 154.824219 89.214844 154.855469 89.570312 154.855469 C 91.480469 154.863281 93.355469 155.113281 95.199219 155.609375 C 97.042969 156.105469 98.792969 156.832031 100.445312 157.785156 C 102.097656 158.742188 103.601562 159.890625 104.953125 161.238281 C 106.304688 162.589844 107.457031 164.085938 108.417969 165.738281 L 78.691406 165.738281 Z M 254.648438 165.738281 L 120.351562 165.738281 C 119.863281 164.375 119.289062 163.050781 118.628906 161.761719 C 117.964844 160.472656 117.222656 159.234375 116.394531 158.046875 C 115.570312 156.859375 114.667969 155.726562 113.691406 154.660156 C 112.714844 153.589844 111.675781 152.585938 110.566406 151.65625 C 109.457031 150.722656 108.292969 149.871094 107.070312 149.089844 C 105.851562 148.3125 104.582031 147.621094 103.269531 147.011719 C 101.957031 146.398438 100.609375 145.878906 99.226562 145.449219 C 97.84375 145.015625 96.441406 144.679688 95.011719 144.433594 L 95.011719 110.878906 C 96.671875 110.59375 98.300781 110.1875 99.898438 109.652344 C 101.492188 109.117188 103.039062 108.460938 104.535156 107.6875 C 106.03125 106.914062 107.457031 106.03125 108.816406 105.039062 C 110.175781 104.042969 111.453125 102.953125 112.640625 101.761719 C 113.832031 100.570312 114.925781 99.296875 115.917969 97.9375 C 116.914062 96.578125 117.796875 95.148438 118.570312 93.65625 C 119.34375 92.160156 119.996094 90.613281 120.53125 89.015625 C 121.066406 87.417969 121.476562 85.792969 121.757812 84.132812 L 253.242188 84.132812 C 253.523438 85.792969 253.933594 87.417969 254.46875 89.015625 C 255.003906 90.613281 255.65625 92.160156 256.429688 93.65625 C 257.203125 95.148438 258.085938 96.578125 259.082031 97.9375 C 260.074219 99.296875 261.167969 100.570312 262.359375 101.761719 C 263.546875 102.953125 264.824219 104.042969 266.183594 105.039062 C 267.542969 106.03125 268.96875 106.914062 270.464844 107.6875 C 271.960938 108.460938 273.507812 109.117188 275.101562 109.652344 C 276.699219 110.1875 278.328125 110.59375 279.988281 110.878906 L 279.988281 144.433594 C 278.558594 144.679688 277.15625 145.015625 275.773438 145.449219 C 274.390625 145.878906 273.042969 146.398438 271.730469 147.011719 C 270.417969 147.621094 269.148438 148.3125 267.929688 149.089844 C 266.707031 149.871094 265.542969 150.722656 264.433594 151.65625 C 263.324219 152.585938 262.285156 153.589844 261.308594 154.660156 C 260.332031 155.726562 259.429688 156.859375 258.605469 158.046875 C 257.777344 159.234375 257.035156 160.472656 256.371094 161.761719 C 255.710938 163.050781 255.136719 164.375 254.648438 165.738281 Z M 345.273438 307.1875 L 29.726562 307.1875 L 29.726562 176.617188 L 345.273438 176.617188 Z M 345.273438 307.1875 " fill-opacity="1" fill-rule="nonzero"/></g><path fill="#cc4e00" d="M 46.050781 231.023438 L 122.214844 231.023438 C 122.570312 231.023438 122.925781 230.988281 123.277344 230.917969 C 123.625 230.847656 123.964844 230.746094 124.296875 230.609375 C 124.625 230.472656 124.941406 230.304688 125.238281 230.105469 C 125.535156 229.90625 125.808594 229.683594 126.0625 229.429688 C 126.3125 229.175781 126.539062 228.902344 126.738281 228.605469 C 126.9375 228.308594 127.105469 227.996094 127.242188 227.664062 C 127.378906 227.335938 127.480469 226.996094 127.550781 226.644531 C 127.621094 226.292969 127.65625 225.941406 127.65625 225.582031 L 127.65625 192.941406 C 127.65625 192.582031 127.621094 192.230469 127.550781 191.878906 C 127.480469 191.527344 127.378906 191.1875 127.242188 190.859375 C 127.105469 190.527344 126.9375 190.214844 126.738281 189.917969 C 126.539062 189.621094 126.3125 189.347656 126.0625 189.09375 C 125.808594 188.839844 125.535156 188.617188 125.238281 188.417969 C 124.941406 188.21875 124.625 188.050781 124.296875 187.914062 C 123.964844 187.777344 123.625 187.675781 123.277344 187.605469 C 122.925781 187.535156 122.570312 187.5 122.214844 187.5 L 46.050781 187.5 C 45.691406 187.5 45.335938 187.535156 44.988281 187.605469 C 44.636719 187.675781 44.296875 187.777344 43.96875 187.914062 C 43.636719 188.050781 43.324219 188.21875 43.027344 188.417969 C 42.730469 188.617188 42.453125 188.839844 42.203125 189.09375 C 41.949219 189.347656 41.722656 189.621094 41.523438 189.917969 C 41.328125 190.214844 41.160156 190.527344 41.023438 190.859375 C 40.886719 191.1875 40.78125 191.527344 40.714844 191.878906 C 40.644531 192.230469 40.609375 192.582031 40.609375 192.941406 L 40.609375 225.582031 C 40.609375 225.941406 40.644531 226.292969 40.714844 226.644531 C 40.78125 226.996094 40.886719 227.335938 41.023438 227.664062 C 41.160156 227.996094 41.328125 228.308594 41.523438 228.605469 C 41.722656 228.902344 41.949219 229.175781 42.203125 229.429688 C 42.453125 229.683594 42.730469 229.90625 43.027344 230.105469 C 43.324219 230.304688 43.636719 230.472656 43.96875 230.609375 C 44.296875 230.746094 44.636719 230.847656 44.988281 230.917969 C 45.335938 230.988281 45.691406 231.023438 46.050781 231.023438 Z M 51.488281 198.378906 L 116.773438 198.378906 L 116.773438 220.140625 L 51.488281 220.140625 Z M 51.488281 198.378906 " fill-opacity="1" fill-rule="nonzero"/><path fill="#cc4e00" d="M 256.695312 245.058594 C 252.617188 241.878906 246.792969 241.144531 241.121094 243.089844 C 237.261719 244.410156 234.035156 246.691406 231.191406 248.703125 L 230.324219 249.3125 C 220.425781 256.261719 209.824219 261.882812 198.523438 266.179688 C 191.96875 268.667969 182.394531 271.601562 174.929688 268.324219 C 172.15625 267.109375 169.570312 265.007812 166.839844 262.785156 C 163.476562 260.058594 160.003906 257.238281 155.570312 255.449219 C 150 253.199219 141.425781 251.503906 124.453125 258.386719 C 113.132812 262.980469 102.277344 268.488281 91.882812 274.90625 C 85.96875 278.5625 80.734375 281.464844 76.667969 279.945312 C 73.925781 278.917969 71.628906 275.675781 69.410156 272.539062 C 66.285156 268.125 62.449219 263.265625 56.410156 261.496094 C 55.328125 261.203125 54.226562 261.039062 53.109375 261.003906 C 51.988281 260.972656 50.882812 261.070312 49.785156 261.296875 C 48.6875 261.523438 47.632812 261.878906 46.621094 262.355469 C 45.605469 262.832031 44.664062 263.421875 43.789062 264.121094 C 43.082031 264.667969 42.453125 265.296875 41.902344 266 C 41.351562 266.703125 40.894531 267.464844 40.527344 268.28125 C 40.164062 269.097656 39.90625 269.945312 39.75 270.828125 C 39.59375 271.707031 39.546875 272.59375 39.613281 273.484375 C 39.640625 273.839844 39.703125 274.1875 39.800781 274.527344 C 39.894531 274.867188 40.023438 275.195312 40.183594 275.511719 C 40.347656 275.828125 40.535156 276.125 40.753906 276.40625 C 40.972656 276.683594 41.21875 276.941406 41.484375 277.171875 C 41.753906 277.402344 42.042969 277.605469 42.351562 277.78125 C 42.660156 277.953125 42.980469 278.097656 43.320312 278.210938 C 43.65625 278.320312 44 278.398438 44.351562 278.445312 C 44.703125 278.488281 45.054688 278.5 45.410156 278.476562 C 45.761719 278.449219 46.109375 278.390625 46.453125 278.300781 C 46.796875 278.207031 47.125 278.082031 47.441406 277.925781 C 47.761719 277.769531 48.058594 277.582031 48.34375 277.367188 C 48.625 277.152344 48.882812 276.910156 49.117188 276.644531 C 49.351562 276.378906 49.554688 276.09375 49.734375 275.785156 C 49.914062 275.480469 50.0625 275.160156 50.175781 274.824219 C 50.292969 274.488281 50.375 274.148438 50.421875 273.796875 C 50.472656 273.445312 50.488281 273.09375 50.464844 272.738281 C 50.855469 272.382812 51.304688 272.132812 51.8125 271.992188 C 52.320312 271.851562 52.832031 271.835938 53.351562 271.941406 C 56.035156 272.726562 58.367188 275.773438 60.527344 278.824219 C 63.402344 282.886719 66.976562 287.9375 72.859375 290.136719 C 74.835938 290.875 76.878906 291.242188 78.988281 291.234375 C 86.152344 291.234375 92.832031 287.109375 97.601562 284.164062 C 107.476562 278.066406 117.789062 272.832031 128.539062 268.46875 C 135.992188 265.445312 144.550781 262.734375 151.496094 265.535156 C 154.414062 266.714844 157.117188 268.90625 159.976562 271.230469 C 163.15625 273.8125 166.4375 276.480469 170.558594 278.289062 C 181.675781 283.164062 194.050781 279.515625 202.386719 276.347656 C 214.539062 271.730469 225.933594 265.6875 236.574219 258.21875 L 237.472656 257.585938 C 239.9375 255.84375 242.261719 254.199219 244.644531 253.382812 C 246.734375 252.667969 248.886719 252.769531 250.003906 253.636719 C 250.285156 253.859375 250.585938 254.046875 250.90625 254.207031 C 251.222656 254.371094 251.554688 254.496094 251.898438 254.59375 C 252.242188 254.6875 252.59375 254.746094 252.949219 254.773438 C 253.308594 254.800781 253.660156 254.792969 254.015625 254.746094 C 254.371094 254.703125 254.71875 254.625 255.058594 254.511719 C 255.394531 254.402344 255.722656 254.257812 256.03125 254.082031 C 256.34375 253.90625 256.632812 253.699219 256.902344 253.464844 C 257.175781 253.234375 257.417969 252.976562 257.640625 252.691406 C 257.859375 252.410156 258.046875 252.109375 258.207031 251.792969 C 258.371094 251.472656 258.496094 251.140625 258.59375 250.796875 C 258.6875 250.453125 258.746094 250.101562 258.773438 249.746094 C 258.800781 249.390625 258.792969 249.035156 258.746094 248.679688 C 258.703125 248.324219 258.625 247.976562 258.511719 247.640625 C 258.402344 247.300781 258.257812 246.976562 258.082031 246.664062 C 257.90625 246.355469 257.699219 246.0625 257.464844 245.792969 C 257.234375 245.523438 256.976562 245.277344 256.695312 245.058594 Z M 256.695312 245.058594 " fill-opacity="1" fill-rule="nonzero"/><path fill="#cc4e00" d="M 279.988281 192.941406 C 279.988281 193.296875 280.023438 193.652344 280.089844 194 C 280.160156 194.351562 280.265625 194.691406 280.402344 195.023438 C 280.539062 195.351562 280.707031 195.664062 280.902344 195.964844 C 281.101562 196.261719 281.328125 196.535156 281.582031 196.789062 C 281.832031 197.039062 282.109375 197.265625 282.40625 197.464844 C 282.703125 197.664062 283.015625 197.828125 283.347656 197.964844 C 283.675781 198.101562 284.015625 198.207031 284.367188 198.277344 C 284.714844 198.347656 285.070312 198.378906 285.425781 198.378906 L 328.949219 198.378906 C 329.308594 198.378906 329.664062 198.347656 330.011719 198.277344 C 330.363281 198.207031 330.703125 198.101562 331.03125 197.964844 C 331.363281 197.828125 331.675781 197.664062 331.972656 197.464844 C 332.269531 197.265625 332.546875 197.039062 332.796875 196.789062 C 333.050781 196.535156 333.277344 196.261719 333.476562 195.964844 C 333.671875 195.664062 333.839844 195.351562 333.976562 195.023438 C 334.113281 194.691406 334.21875 194.351562 334.285156 194 C 334.355469 193.652344 334.390625 193.296875 334.390625 192.941406 C 334.390625 192.582031 334.355469 192.230469 334.285156 191.878906 C 334.21875 191.527344 334.113281 191.1875 333.976562 190.859375 C 333.839844 190.527344 333.671875 190.214844 333.476562 189.917969 C 333.277344 189.621094 333.050781 189.347656 332.796875 189.09375 C 332.546875 188.839844 332.269531 188.617188 331.972656 188.417969 C 331.675781 188.21875 331.363281 188.050781 331.03125 187.914062 C 330.703125 187.777344 330.363281 187.675781 330.011719 187.605469 C 329.664062 187.535156 329.308594 187.5 328.949219 187.5 L 285.425781 187.5 C 285.070312 187.5 284.714844 187.535156 284.367188 187.605469 C 284.015625 187.675781 283.675781 187.777344 283.347656 187.914062 C 283.015625 188.050781 282.703125 188.21875 282.40625 188.417969 C 282.109375 188.617188 281.832031 188.839844 281.582031 189.09375 C 281.328125 189.347656 281.101562 189.621094 280.902344 189.917969 C 280.707031 190.214844 280.539062 190.527344 280.402344 190.859375 C 280.265625 191.1875 280.160156 191.527344 280.09375 191.878906 C 280.023438 192.230469 279.988281 192.582031 279.988281 192.941406 Z M 279.988281 192.941406 " fill-opacity="1" fill-rule="nonzero"/><path fill="#cc4e00" d="M 328.949219 203.820312 L 307.1875 203.820312 C 306.832031 203.820312 306.476562 203.855469 306.128906 203.925781 C 305.777344 203.996094 305.4375 204.097656 305.109375 204.234375 C 304.777344 204.371094 304.464844 204.539062 304.167969 204.738281 C 303.871094 204.9375 303.59375 205.164062 303.34375 205.414062 C 303.089844 205.667969 302.863281 205.941406 302.664062 206.238281 C 302.46875 206.535156 302.300781 206.851562 302.164062 207.179688 C 302.027344 207.507812 301.921875 207.851562 301.851562 208.199219 C 301.785156 208.550781 301.75 208.90625 301.75 209.261719 C 301.75 209.617188 301.785156 209.972656 301.851562 210.324219 C 301.921875 210.671875 302.027344 211.011719 302.164062 211.34375 C 302.300781 211.671875 302.46875 211.988281 302.664062 212.285156 C 302.863281 212.582031 303.089844 212.855469 303.34375 213.109375 C 303.59375 213.359375 303.871094 213.585938 304.167969 213.785156 C 304.464844 213.984375 304.777344 214.152344 305.109375 214.289062 C 305.4375 214.425781 305.777344 214.527344 306.128906 214.597656 C 306.476562 214.667969 306.832031 214.703125 307.1875 214.703125 L 328.949219 214.703125 C 329.308594 214.703125 329.664062 214.667969 330.011719 214.597656 C 330.363281 214.527344 330.703125 214.425781 331.03125 214.289062 C 331.363281 214.152344 331.675781 213.984375 331.972656 213.785156 C 332.269531 213.585938 332.546875 213.359375 332.796875 213.109375 C 333.050781 212.855469 333.277344 212.582031 333.476562 212.285156 C 333.671875 211.988281 333.839844 211.671875 333.976562 211.34375 C 334.113281 211.011719 334.21875 210.671875 334.285156 210.324219 C 334.355469 209.972656 334.390625 209.617188 334.390625 209.261719 C 334.390625 208.90625 334.355469 208.550781 334.285156 208.199219 C 334.21875 207.851562 334.113281 207.507812 333.976562 207.179688 C 333.839844 206.851562 333.671875 206.535156 333.476562 206.238281 C 333.277344 205.941406 333.050781 205.667969 332.796875 205.414062 C 332.546875 205.164062 332.269531 204.9375 331.972656 204.738281 C 331.675781 204.539062 331.363281 204.371094 331.03125 204.234375 C 330.703125 204.097656 330.363281 203.996094 330.011719 203.925781 C 329.664062 203.855469 329.308594 203.820312 328.949219 203.820312 Z M 328.949219 203.820312 " fill-opacity="1" fill-rule="nonzero"/></svg>