<svg xmlns="http://www.w3.org/2000/svg" xmlns:xlink="http://www.w3.org/1999/xlink" width="500" zoomAndPan="magnify" viewBox="0 0 375 374.999991" height="500" preserveAspectRatio="xMidYMid meet" version="1.2"><defs><clipPath id="753ae02586"><path d="M 7 51.507812 L 371.222656 51.507812 L 371.222656 323.757812 L 7 323.757812 Z M 7 51.507812 "/></clipPath><clipPath id="72bdc46de7"><path d="M 0.441406 2 L 171 2 L 171 272 L 0.441406 272 Z M 0.441406 2 "/></clipPath><clipPath id="bcdb16a702"><path d="M 189 44 L 364.222656 44 L 364.222656 233 L 189 233 Z M 189 44 "/></clipPath><clipPath id="9fda00c792"><rect x="0" width="365" y="0" height="273"/></clipPath></defs><g id="11281b0865"><g clip-rule="nonzero" clip-path="url(#753ae02586)"><g transform="matrix(1,0,0,1,7,51)"><g clip-path="url(#9fda00c792)"><path style=" stroke:none;fill-rule:nonzero;fill:#cc4e00;fill-opacity:1;" d="M 96.566406 103.652344 C 96.566406 102.058594 97.859375 100.765625 99.453125 100.765625 C 101.046875 100.765625 102.339844 102.058594 102.339844 103.652344 C 102.339844 147.867188 138.308594 183.832031 182.519531 183.832031 C 226.726562 183.832031 262.699219 147.867188 262.699219 103.652344 C 262.699219 59.441406 226.726562 23.472656 182.519531 23.472656 C 161.609375 23.472656 141.824219 31.46875 126.796875 46 C 122.101562 50.492188 107.664062 67.507812 119.101562 98.046875 C 129.414062 125.589844 144.167969 126.511719 144.234375 126.519531 C 154.199219 126.519531 162.308594 118.40625 162.308594 108.441406 L 162.308594 59.097656 C 162.308594 57.5 163.601562 56.210938 165.195312 56.210938 C 166.789062 56.210938 168.082031 57.5 168.082031 59.097656 L 168.082031 69.613281 C 170.636719 65.949219 173.914062 63.21875 177.851562 61.808594 C 192.585938 56.546875 210.480469 70.175781 218.582031 92.832031 C 226.554688 115.078125 221.238281 137.421875 206.730469 142.632812 C 204.597656 143.394531 202.398438 143.761719 200.175781 143.761719 C 187.746094 143.761719 174.488281 132.34375 167.210938 114.730469 C 164.441406 124.835938 155.195312 132.296875 144.1875 132.296875 C 143.429688 132.285156 125.511719 131.636719 113.695312 100.074219 C 101.015625 66.222656 117.464844 46.933594 122.792969 41.839844 C 138.890625 26.273438 160.101562 17.699219 182.519531 17.699219 C 229.914062 17.699219 268.472656 56.257812 268.472656 103.652344 C 268.472656 151.050781 229.914062 189.605469 182.519531 189.605469 C 135.125 189.605469 96.566406 151.046875 96.566406 103.652344 Z M 96.566406 103.652344 "/><g clip-rule="nonzero" clip-path="url(#72bdc46de7)"><path style=" stroke:none;fill-rule:nonzero;fill:#cc4e00;fill-opacity:1;" d="M 3.980469 41.945312 C 7.535156 28.347656 16.699219 17.601562 29.109375 12.464844 L 49.148438 4.117188 C 55.261719 1.582031 62.089844 1.832031 68.367188 4.835938 C 74.542969 7.785156 79.453125 13.058594 82.199219 19.679688 L 91.351562 41.65625 C 92.855469 45.292969 93.621094 49.074219 93.621094 52.894531 C 93.621094 63.289062 87.902344 72.378906 79.050781 76.058594 C 71.472656 79.207031 66.921875 87.171875 67.460938 96.347656 C 68.125 107.691406 70.445312 124.878906 77.695312 142.355469 C 84.976562 159.84375 95.519531 173.609375 103.078125 182.078125 C 107.324219 186.828125 113.070312 189.550781 118.855469 189.550781 C 121.25 189.550781 123.539062 189.101562 125.65625 188.210938 C 138.136719 183.011719 152.964844 189.992188 158.707031 203.773438 L 167.835938 225.746094 C 173.546875 239.527344 168.03125 254.964844 155.53125 260.152344 L 135.496094 268.464844 C 130.332031 270.613281 124.875 271.675781 119.386719 271.675781 C 111.695312 271.675781 103.941406 269.585938 96.84375 265.464844 C 77.117188 253.964844 48.199219 227.25 22.46875 165.308594 C -3.265625 103.386719 -1.792969 64.046875 3.980469 41.945312 Z M 3.980469 41.945312 "/></g><g clip-rule="nonzero" clip-path="url(#bcdb16a702)"><path style=" stroke:none;fill-rule:nonzero;fill:#cc4e00;fill-opacity:1;" d="M 192.304688 196.449219 C 193.898438 196.449219 195.195312 197.742188 195.195312 199.335938 L 195.195312 223.605469 L 232.164062 192.363281 C 232.6875 191.925781 233.347656 191.683594 234.03125 191.683594 L 342.847656 191.683594 C 351.476562 191.683594 358.496094 184.675781 358.496094 176.0625 L 358.496094 66.085938 C 358.496094 57.476562 351.476562 50.46875 342.847656 50.46875 L 259.203125 50.46875 C 257.609375 50.46875 256.316406 49.175781 256.316406 47.582031 C 256.316406 45.984375 257.609375 44.691406 259.203125 44.691406 L 342.847656 44.691406 C 354.660156 44.691406 364.269531 54.289062 364.269531 66.085938 L 364.269531 176.0625 C 364.269531 187.859375 354.660156 197.457031 342.847656 197.457031 L 235.085938 197.457031 L 194.171875 232.03125 C 193.640625 232.476562 192.976562 232.710938 192.304688 232.710938 C 191.894531 232.710938 191.476562 232.625 191.089844 232.441406 C 190.070312 231.96875 189.417969 230.945312 189.417969 229.824219 L 189.417969 199.335938 C 189.417969 197.742188 190.710938 196.449219 192.304688 196.449219 Z M 192.304688 196.449219 "/></g><path style=" stroke:none;fill-rule:nonzero;fill:#cc4e00;fill-opacity:1;" d="M 283.484375 87.945312 C 281.890625 87.945312 280.597656 86.652344 280.597656 85.058594 C 280.597656 83.460938 281.890625 82.167969 283.484375 82.167969 L 327.890625 82.167969 C 329.484375 82.167969 330.777344 83.460938 330.777344 85.058594 C 330.777344 86.652344 329.484375 87.945312 327.890625 87.945312 Z M 283.484375 87.945312 "/><path style=" stroke:none;fill-rule:nonzero;fill:#cc4e00;fill-opacity:1;" d="M 346.746094 128.277344 C 346.746094 129.875 345.453125 131.167969 343.859375 131.167969 L 276.84375 131.167969 C 275.25 131.167969 273.957031 129.875 273.957031 128.277344 C 273.957031 126.683594 275.25 125.390625 276.84375 125.390625 L 343.859375 125.390625 C 345.453125 125.390625 346.746094 126.683594 346.746094 128.277344 Z M 346.746094 128.277344 "/></g></g></g></g></svg>