<svg xmlns="http://www.w3.org/2000/svg" xmlns:xlink="http://www.w3.org/1999/xlink" width="500" zoomAndPan="magnify" viewBox="0 0 375 374.999991" height="500" preserveAspectRatio="xMidYMid meet" version="1.2"><defs><clipPath id="297479bce3"><path d="M 236.6875 140.199219 L 349.433594 140.199219 L 349.433594 277 L 236.6875 277 Z M 236.6875 140.199219 "/></clipPath><clipPath id="67bae0b333"><path d="M 25.5625 140.199219 L 138.902344 140.199219 L 138.902344 277 L 25.5625 277 Z M 25.5625 140.199219 "/></clipPath><clipPath id="babe7eb0ce"><path d="M 113 97.828125 L 262 97.828125 L 262 274 L 113 274 Z M 113 97.828125 "/></clipPath></defs><g id="bd14d4558f"><g clip-rule="nonzero" clip-path="url(#297479bce3)"><path style=" stroke:none;fill-rule:nonzero;fill:#ffffff;fill-opacity:1;" d="M 346.664062 184.019531 C 344.296875 176.402344 340.550781 169.421875 335.519531 163.273438 C 330.308594 156.910156 323.945312 151.722656 316.609375 147.859375 C 309.269531 143.996094 301.394531 141.6875 293.199219 140.992188 C 285.28125 140.324219 277.40625 141.183594 269.785156 143.546875 C 267.835938 144.152344 265.925781 144.847656 264.058594 145.632812 C 264.78125 147.726562 265.417969 149.84375 265.960938 151.984375 C 267.832031 151.167969 269.761719 150.449219 271.738281 149.835938 C 277.105469 148.171875 282.59375 147.347656 288.054688 147.347656 C 296.835938 147.347656 305.546875 149.480469 313.539062 153.691406 C 340.296875 167.777344 350.605469 201.011719 336.515625 227.769531 C 324.628906 250.351562 298.160156 261.867188 273.582031 255.152344 C 272.648438 254.894531 271.648438 255.066406 270.847656 255.617188 L 253.652344 267.441406 L 253.667969 246.570312 C 253.667969 245.601562 253.242188 244.679688 252.5 244.050781 C 248.304688 240.5 244.765625 236.394531 241.902344 231.917969 C 240.257812 233.410156 238.550781 234.835938 236.789062 236.191406 C 239.695312 240.582031 243.144531 244.5625 247.078125 248.066406 L 247.054688 273.703125 C 247.054688 274.929688 247.734375 276.050781 248.816406 276.621094 C 249.296875 276.875 249.824219 277 250.351562 277 C 251.003906 277 251.65625 276.804688 252.21875 276.421875 L 273.34375 261.894531 C 279.574219 263.429688 285.980469 263.96875 292.414062 263.5 C 299.226562 263.003906 305.875 261.386719 312.164062 258.699219 C 318.511719 255.984375 324.304688 252.261719 329.386719 247.632812 C 334.640625 242.839844 339.003906 237.1875 342.347656 230.839844 C 346.210938 223.5 348.519531 215.625 349.214844 207.429688 C 349.886719 199.515625 349.027344 191.640625 346.664062 184.019531 "/></g><g clip-rule="nonzero" clip-path="url(#67bae0b333)"><path style=" stroke:none;fill-rule:nonzero;fill:#ffffff;fill-opacity:1;" d="M 122.496094 244.050781 C 121.757812 244.679688 121.332031 245.601562 121.332031 246.570312 L 121.351562 267.441406 L 104.152344 255.617188 C 103.597656 255.234375 102.945312 255.035156 102.285156 255.035156 C 101.996094 255.035156 101.703125 255.074219 101.417969 255.152344 C 76.835938 261.867188 50.367188 250.351562 38.480469 227.769531 C 24.390625 201.011719 34.703125 167.777344 61.460938 153.691406 C 74.425781 146.863281 89.269531 145.496094 103.257812 149.835938 C 105.238281 150.449219 107.167969 151.167969 109.039062 151.984375 C 109.582031 149.84375 110.214844 147.726562 110.941406 145.632812 C 109.074219 144.847656 107.164062 144.152344 105.214844 143.546875 C 97.59375 141.183594 89.71875 140.324219 81.804688 140.992188 C 73.605469 141.6875 65.730469 143.996094 58.394531 147.859375 C 51.054688 151.722656 44.691406 156.910156 39.484375 163.273438 C 34.449219 169.421875 30.699219 176.402344 28.335938 184.019531 C 25.972656 191.640625 25.117188 199.515625 25.785156 207.429688 C 26.480469 215.625 28.789062 223.5 32.652344 230.839844 C 35.996094 237.1875 40.355469 242.839844 45.613281 247.632812 C 50.691406 252.261719 56.488281 255.984375 62.835938 258.699219 C 69.128906 261.386719 75.773438 263.003906 82.585938 263.5 C 89.015625 263.96875 95.421875 263.429688 101.65625 261.894531 L 122.785156 276.421875 C 123.34375 276.804688 123.992188 277 124.648438 277 C 125.171875 277 125.699219 276.875 126.183594 276.621094 C 127.265625 276.050781 127.941406 274.929688 127.941406 273.703125 L 127.921875 248.066406 C 131.855469 244.5625 135.300781 240.582031 138.210938 236.191406 C 136.449219 234.835938 134.742188 233.410156 133.097656 231.917969 C 130.238281 236.394531 126.691406 240.5 122.496094 244.050781 "/></g><g clip-rule="nonzero" clip-path="url(#babe7eb0ce)"><path style=" stroke:none;fill-rule:nonzero;fill:#ffffff;fill-opacity:1;" d="M 199.9375 239.476562 L 187.5 263.144531 L 175.0625 239.476562 C 174.613281 238.617188 173.804688 238 172.859375 237.789062 C 142.28125 231.023438 120.089844 203.339844 120.089844 171.976562 C 120.089844 134.804688 150.328125 104.566406 187.5 104.566406 C 224.671875 104.566406 254.910156 134.804688 254.910156 171.976562 C 254.910156 203.339844 232.71875 231.023438 202.140625 237.789062 C 201.195312 238 200.386719 238.617188 199.9375 239.476562 Z M 226.601562 234.808594 C 233.585938 230.453125 239.765625 225.003906 244.960938 218.605469 C 250.203125 212.152344 254.289062 204.933594 257.105469 197.144531 C 260.019531 189.085938 261.5 180.621094 261.5 171.976562 C 261.5 161.988281 259.542969 152.296875 255.683594 143.167969 C 251.953125 134.359375 246.617188 126.445312 239.824219 119.648438 C 233.03125 112.855469 225.117188 107.519531 216.304688 103.792969 C 207.179688 99.933594 197.488281 97.976562 187.5 97.976562 C 177.511719 97.976562 167.820312 99.933594 158.695312 103.792969 C 149.882812 107.519531 141.96875 112.855469 135.175781 119.648438 C 128.378906 126.445312 123.042969 134.359375 119.316406 143.167969 C 115.460938 152.296875 113.5 161.988281 113.5 171.976562 C 113.5 180.621094 114.980469 189.085938 117.894531 197.144531 C 120.707031 204.933594 124.792969 212.152344 130.039062 218.605469 C 135.238281 225.003906 141.414062 230.453125 148.394531 234.808594 C 155.074219 238.972656 162.3125 242.019531 169.933594 243.875 L 184.585938 271.757812 C 185.152344 272.839844 186.277344 273.523438 187.5 273.523438 C 188.726562 273.523438 189.847656 272.839844 190.414062 271.757812 L 205.066406 243.875 C 212.683594 242.019531 219.925781 238.972656 226.601562 234.808594 "/></g><path style=" stroke:none;fill-rule:nonzero;fill:#ffffff;fill-opacity:1;" d="M 216.554688 179.984375 L 188.097656 208.976562 C 187.707031 209.367188 187.382812 209.367188 186.992188 208.976562 L 158.53125 179.984375 C 144.285156 164.386719 164.644531 141.453125 181.867188 157.234375 L 187.542969 163.027344 L 193.222656 157.234375 C 210.53125 141.417969 230.722656 164.398438 216.554688 179.984375 Z M 220.386719 149.5625 C 211.007812 141.675781 196.519531 142.859375 187.542969 151.996094 C 162.292969 128.867188 131.910156 162.277344 152.984375 185.453125 L 181.445312 214.445312 C 184.640625 217.851562 190.453125 217.867188 193.644531 214.460938 L 222.105469 185.46875 C 230.785156 176.59375 232.601562 159.847656 220.386719 149.5625 "/><path style=" stroke:none;fill-rule:nonzero;fill:#ffffff;fill-opacity:1;" d="M 302.445312 207.996094 L 305.082031 223.390625 L 291.253906 216.125 L 277.429688 223.390625 L 280.0625 207.996094 L 268.875 197.09375 L 284.335938 194.847656 L 291.253906 180.832031 L 298.171875 194.847656 L 313.632812 197.09375 Z M 317.960938 192.332031 L 301.710938 189.964844 L 294.445312 175.238281 C 293.144531 172.613281 289.375 172.578125 288.0625 175.238281 L 280.796875 189.964844 L 264.546875 192.332031 C 261.632812 192.757812 260.464844 196.351562 262.578125 198.40625 L 274.335938 209.863281 L 271.554688 226.046875 C 271.054688 228.972656 274.136719 231.167969 276.714844 229.796875 L 291.253906 222.15625 L 305.792969 229.796875 C 308.375 231.15625 311.453125 228.972656 310.953125 226.046875 L 308.171875 209.863281 L 319.929688 198.40625 C 322.042969 196.351562 320.875 192.757812 317.960938 192.332031 "/><path style=" stroke:none;fill-rule:nonzero;fill:#ffffff;fill-opacity:1;" d="M 68.605469 221.828125 C 68.605469 223.304688 67.410156 224.5 65.933594 224.5 C 62.394531 224.359375 62.394531 219.300781 65.933594 219.160156 C 67.410156 219.160156 68.605469 220.355469 68.605469 221.828125 Z M 103.8125 211.65625 C 105.210938 214.003906 103.953125 217.148438 102.261719 218.058594 C 103.117188 223.484375 100.300781 225.386719 96.351562 225.386719 L 92.148438 225.386719 C 84.179688 225.386719 79.015625 221.179688 73.054688 221.179688 L 73.054688 200.472656 L 74.269531 200.472656 C 77.425781 200.472656 81.832031 192.589844 84.785156 189.632812 C 87.941406 186.476562 86.886719 181.21875 88.992188 179.113281 C 94.25 179.113281 94.25 182.785156 94.25 185.425781 C 94.25 189.785156 91.09375 191.734375 91.09375 195.941406 L 102.664062 195.941406 C 105.011719 195.941406 106.859375 198.046875 106.867188 200.148438 C 106.878906 202.253906 105.441406 204.355469 104.390625 204.355469 C 105.894531 205.972656 106.214844 209.386719 103.8125 211.65625 Z M 110.683594 205.667969 C 114.601562 199.453125 110.597656 190.726562 102.664062 190.601562 L 98.605469 190.601562 C 99.152344 189.179688 99.585938 187.476562 99.585938 185.425781 C 99.585938 177.328125 95.398438 173.777344 88.992188 173.777344 C 82.140625 173.777344 82.53125 184.335938 81.011719 185.859375 C 78.476562 188.386719 75.492188 193.246094 73.363281 195.132812 L 62.375 195.132812 C 60.410156 195.132812 58.816406 196.730469 58.816406 198.695312 L 58.816406 225.386719 C 58.816406 227.355469 60.410156 228.949219 62.375 228.949219 L 69.496094 228.949219 C 71.152344 228.949219 72.542969 227.816406 72.941406 226.285156 C 77.890625 226.394531 81.289062 230.726562 92.71875 230.726562 C 93.523438 230.726562 94.410156 230.730469 95.1875 230.730469 C 103.769531 230.730469 107.648438 226.34375 107.753906 220.125 C 109.234375 218.074219 110.011719 215.328125 109.679688 212.671875 C 110.777344 210.621094 111.199219 208.183594 110.683594 205.667969 "/></g></svg>